<svg width="573" height="142" viewBox="0 0 573 142" fill="none" xmlns="http://www.w3.org/2000/svg">
<path d="M7.05699 141.848C16.937 141.848 25.547 138.32 32.604 131.404C39.52 124.347 43.049 115.737 43.049 105.857V38.391C43.049 36.415 42.343 34.721 41.073 33.451C39.661 32.039 37.968 31.334 35.992 31.334C34.721 31.334 33.592 31.616 32.463 32.322C31.475 32.886 30.487 33.733 29.922 34.862C29.358 35.85 28.934 37.12 28.934 38.391V105.857C28.934 111.926 26.817 117.007 22.583 121.383C18.208 125.617 13.126 127.734 7.05699 127.734C5.08099 127.734 3.388 128.44 1.976 129.851C0.705998 131.263 0 132.956 0 134.791C0 136.767 0.705998 138.461 1.976 139.872C3.388 141.284 5.08099 141.848 7.05699 141.848ZM42.625 2.823C40.79 0.987998 38.673 0 36.133 0C33.592 0 31.334 0.987998 29.499 2.823C27.664 4.658 26.817 6.775 26.817 9.315C26.817 11.856 27.664 14.114 29.499 15.949C31.334 17.784 33.592 18.631 36.133 18.631C38.673 18.631 40.79 17.784 42.625 15.949C44.46 14.114 45.448 11.856 45.448 9.315C45.448 6.775 44.46 4.658 42.625 2.823Z" fill="url(#paint0_linear_99_2608)"/>
<path d="M99.513 108.962C110.381 108.962 119.555 105.151 127.177 97.53C134.798 89.908 138.75 80.734 138.75 69.866C138.75 58.998 134.798 49.823 127.177 42.202C119.555 34.58 110.381 30.628 99.513 30.628C88.645 30.628 79.47 34.58 71.849 42.202C64.227 49.823 60.416 58.998 60.416 69.866C60.416 80.734 64.227 89.908 71.849 97.53C79.47 105.151 88.645 108.962 99.513 108.962ZM99.513 44.178C106.57 44.178 112.639 46.718 117.72 51.658C122.66 56.739 125.201 62.808 125.201 69.866C125.201 76.923 122.66 82.992 117.72 87.932C112.639 93.013 106.57 95.412 99.513 95.412C92.455 95.412 86.386 93.013 81.446 87.932C76.365 82.992 73.966 76.923 73.966 69.866C73.966 62.808 76.365 56.739 81.446 51.658C86.386 46.718 92.455 44.178 99.513 44.178Z" fill="url(#paint1_linear_99_2608)"/>
<path d="M223.687 30.91C221.711 30.91 220.018 31.616 218.606 33.027C217.195 34.439 216.63 35.991 216.63 37.967V73.112C216.63 79.181 214.372 84.403 210.138 88.638C205.762 93.013 200.681 95.13 194.612 95.13C188.543 95.13 183.462 93.013 179.086 88.638C174.852 84.403 172.735 79.181 172.735 73.112V37.967C172.735 35.991 172.029 34.439 170.618 33.027C169.206 31.616 167.654 30.91 165.678 30.91C163.702 30.91 162.008 31.616 160.597 33.027C159.185 34.439 158.621 35.991 158.621 37.967V73.112C158.621 83.133 162.008 91.602 169.065 98.659C176.122 105.716 184.591 109.244 194.612 109.244C204.492 109.244 213.102 105.716 220.159 98.659C227.216 91.602 230.744 83.133 230.744 73.112V37.967C230.744 35.991 230.039 34.439 228.627 33.027C227.216 31.616 225.663 30.91 223.687 30.91Z" fill="url(#paint2_linear_99_2608)"/>
<path d="M299.289 29.075C287.433 29.075 277.412 33.31 268.943 41.637C260.616 49.964 256.523 59.986 256.523 71.842V101.623C256.523 103.599 257.087 105.151 258.499 106.422C259.769 107.833 261.322 108.398 263.298 108.398C265.133 108.398 266.685 107.833 267.955 106.422C269.367 105.151 270.073 103.599 270.073 101.623V71.842C270.073 63.796 272.895 56.88 278.541 51.235C284.328 45.448 291.244 42.625 299.289 42.625C301.124 42.625 302.677 41.919 304.088 40.649C305.358 39.238 306.064 37.685 306.064 35.85C306.064 34.015 305.358 32.322 304.088 31.051C302.677 29.781 301.124 29.075 299.289 29.075Z" fill="url(#paint3_linear_99_2608)"/>
<path d="M424.247 37.544C418.319 31.616 411.121 28.652 402.652 28.652C394.184 28.652 386.985 31.616 381.057 37.544C380.352 38.25 379.787 38.955 379.081 39.661C378.517 38.955 377.811 38.25 377.246 37.544C371.177 31.616 363.979 28.652 355.51 28.652C347.042 28.652 339.844 31.616 333.916 37.544C327.988 43.613 325.024 50.811 325.024 59.28V101.623C325.024 103.599 325.588 105.151 327 106.563C328.411 107.974 330.105 108.68 332.081 108.68C333.916 108.68 335.609 107.974 337.021 106.563C338.432 105.151 339.138 103.599 339.138 101.623V59.28C339.138 54.763 340.69 50.811 343.937 47.565C347.183 44.319 350.994 42.766 355.51 42.766C360.168 42.766 363.979 44.319 367.225 47.565C370.472 50.811 372.024 54.763 372.024 59.28V101.623C372.024 103.599 372.73 105.151 374.141 106.563C375.553 107.974 377.105 108.68 379.081 108.68C381.057 108.68 382.751 107.974 384.021 106.563C385.433 105.151 386.138 103.599 386.138 101.623V59.28C386.138 56.316 386.844 53.493 388.397 50.952C389.808 48.412 391.784 46.436 394.325 45.024C396.865 43.472 399.688 42.766 402.652 42.766C407.169 42.766 411.121 44.319 414.226 47.565C417.472 50.811 419.166 54.763 419.166 59.28V101.623C419.166 103.599 419.73 105.151 421.142 106.563C422.553 107.974 424.247 108.68 426.223 108.68C428.058 108.68 429.752 107.974 431.163 106.563C432.574 105.151 433.28 103.599 433.28 101.623V59.28C433.28 50.811 430.175 43.613 424.247 37.544Z" fill="url(#paint4_linear_99_2608)"/>
<path d="M460.591 33.168C459.18 34.58 458.615 36.274 458.615 38.391V101.199C458.615 103.316 459.18 105.01 460.591 106.422C462.003 107.833 463.696 108.398 465.814 108.398C467.931 108.398 469.624 107.833 471.036 106.422C472.306 105.01 473.012 103.316 473.012 101.199V38.391C473.012 36.274 472.306 34.58 471.036 33.168C469.624 31.898 467.931 31.192 465.814 31.192C463.696 31.192 462.003 31.898 460.591 33.168ZM472.306 2.823C470.471 0.987998 468.354 0 465.814 0C463.273 0 461.015 0.987998 459.18 2.823C457.345 4.658 456.498 6.775 456.498 9.315C456.498 11.856 457.345 14.114 459.18 15.949C461.015 17.784 463.273 18.631 465.814 18.631C468.354 18.631 470.471 17.784 472.306 15.949C474.141 14.114 475.129 11.856 475.129 9.315C475.129 6.775 474.141 4.658 472.306 2.823Z" fill="url(#paint5_linear_99_2608)"/>
<path d="M533.101 108.962C542.417 108.962 550.603 106.139 557.801 100.211C559.354 99.082 560.059 97.53 560.342 95.695C560.483 93.719 560.059 92.166 558.789 90.614C557.66 89.202 556.107 88.355 554.273 88.214C552.438 88.073 550.744 88.496 549.333 89.767C544.534 93.578 539.17 95.412 533.101 95.412C526.044 95.412 519.975 93.013 515.035 87.932C509.954 82.992 507.554 76.923 507.554 69.866C507.554 62.808 509.954 56.739 515.035 51.658C519.975 46.718 526.044 44.178 533.101 44.178C538.888 44.178 544.11 46.012 548.768 49.541C553.285 53.07 556.249 57.586 557.801 63.091H533.101C531.266 63.091 529.573 63.796 528.302 65.067C527.032 66.337 526.326 68.031 526.326 69.866C526.326 71.7 527.032 73.394 528.302 74.664C529.573 75.935 531.266 76.64 533.101 76.64H565.564C567.399 76.64 568.951 75.935 570.222 74.664C571.633 73.394 572.339 71.7 572.339 69.866C572.339 58.998 568.387 49.823 560.765 42.202C553.143 34.58 543.969 30.628 533.101 30.628C522.233 30.628 513.059 34.58 505.437 42.202C497.815 49.823 494.005 58.998 494.005 69.866C494.005 80.734 497.815 89.908 505.437 97.53C513.059 105.151 522.233 108.962 533.101 108.962Z" fill="url(#paint6_linear_99_2608)"/>
<defs>
<linearGradient id="paint0_linear_99_2608" x1="-13.947" y1="120.87" x2="571.606" y2="94.468" gradientUnits="userSpaceOnUse">
<stop stop-color="#609AA5"/>
<stop offset="1" stop-color="#7AC1D2"/>
</linearGradient>
<linearGradient id="paint1_linear_99_2608" x1="-13.947" y1="120.87" x2="571.606" y2="94.468" gradientUnits="userSpaceOnUse">
<stop stop-color="#609AA5"/>
<stop offset="1" stop-color="#7AC1D2"/>
</linearGradient>
<linearGradient id="paint2_linear_99_2608" x1="-13.9471" y1="120.87" x2="571.606" y2="94.468" gradientUnits="userSpaceOnUse">
<stop stop-color="#609AA5"/>
<stop offset="1" stop-color="#7AC1D2"/>
</linearGradient>
<linearGradient id="paint3_linear_99_2608" x1="-13.947" y1="120.87" x2="571.606" y2="94.468" gradientUnits="userSpaceOnUse">
<stop stop-color="#609AA5"/>
<stop offset="1" stop-color="#7AC1D2"/>
</linearGradient>
<linearGradient id="paint4_linear_99_2608" x1="-13.947" y1="120.87" x2="571.606" y2="94.468" gradientUnits="userSpaceOnUse">
<stop stop-color="#609AA5"/>
<stop offset="1" stop-color="#7AC1D2"/>
</linearGradient>
<linearGradient id="paint5_linear_99_2608" x1="-13.9465" y1="120.87" x2="571.606" y2="94.468" gradientUnits="userSpaceOnUse">
<stop stop-color="#609AA5"/>
<stop offset="1" stop-color="#7AC1D2"/>
</linearGradient>
<linearGradient id="paint6_linear_99_2608" x1="-13.9469" y1="120.87" x2="571.606" y2="94.468" gradientUnits="userSpaceOnUse">
<stop stop-color="#609AA5"/>
<stop offset="1" stop-color="#7AC1D2"/>
</linearGradient>
</defs>
</svg>
