<?xml version="1.0" encoding="UTF-8" standalone="no"?>
<!DOCTYPE svg PUBLIC "-//W3C//DTD SVG 1.1//EN" "http://www.w3.org/Graphics/SVG/1.1/DTD/svg11.dtd">
<svg width="100%" height="100%" viewBox="0 0 1024 480" version="1.1" xmlns="http://www.w3.org/2000/svg" xmlns:xlink="http://www.w3.org/1999/xlink" xml:space="preserve" xmlns:serif="http://www.serif.com/" style="fill-rule:evenodd;clip-rule:evenodd;stroke-linejoin:round;stroke-miterlimit:2;">
    <g id="title">
        <g>
            <path id="path384012" d="M223.142,312.053C233.022,312.053 241.632,308.525 248.689,301.609C255.605,294.552 259.134,285.942 259.134,276.062L259.134,208.596C259.134,206.62 258.428,204.926 257.158,203.656C255.746,202.244 254.053,201.539 252.077,201.539C250.806,201.539 249.677,201.821 248.548,202.527C247.56,203.091 246.572,203.938 246.007,205.067C245.443,206.055 245.019,207.325 245.019,208.596L245.019,276.062C245.019,282.131 242.902,287.212 238.668,291.588C234.293,295.822 229.211,297.939 223.142,297.939C221.166,297.939 219.473,298.645 218.061,300.056C216.791,301.468 216.085,303.161 216.085,304.996C216.085,306.972 216.791,308.666 218.061,310.077C219.473,311.489 221.166,312.053 223.142,312.053ZM258.71,173.028C256.875,171.193 254.758,170.205 252.218,170.205C249.677,170.205 247.419,171.193 245.584,173.028C243.749,174.863 242.902,176.98 242.902,179.52C242.902,182.061 243.749,184.319 245.584,186.154C247.419,187.989 249.677,188.836 252.218,188.836C254.758,188.836 256.875,187.989 258.71,186.154C260.545,184.319 261.533,182.061 261.533,179.52C261.533,176.98 260.545,174.863 258.71,173.028Z" style="fill:url(#_Linear1);fill-rule:nonzero;"/>
            <path id="path384014" d="M315.598,279.167C326.466,279.167 335.64,275.356 343.262,267.735C350.883,260.113 354.835,250.939 354.835,240.071C354.835,229.203 350.883,220.028 343.262,212.407C335.64,204.785 326.466,200.833 315.598,200.833C304.73,200.833 295.555,204.785 287.934,212.407C280.312,220.028 276.501,229.203 276.501,240.071C276.501,250.939 280.312,260.113 287.934,267.735C295.555,275.356 304.73,279.167 315.598,279.167ZM315.598,214.383C322.655,214.383 328.724,216.923 333.805,221.863C338.745,226.944 341.286,233.013 341.286,240.071C341.286,247.128 338.745,253.197 333.805,258.137C328.724,263.218 322.655,265.617 315.598,265.617C308.54,265.617 302.471,263.218 297.531,258.137C292.45,253.197 290.051,247.128 290.051,240.071C290.051,233.013 292.45,226.944 297.531,221.863C302.471,216.923 308.54,214.383 315.598,214.383Z" style="fill:url(#_Linear2);fill-rule:nonzero;"/>
            <path id="path384016" d="M439.772,201.115C437.796,201.115 436.103,201.821 434.691,203.232C433.28,204.644 432.715,206.196 432.715,208.172L432.715,243.317C432.715,249.386 430.457,254.608 426.223,258.843C421.847,263.218 416.766,265.335 410.697,265.335C404.628,265.335 399.547,263.218 395.171,258.843C390.937,254.608 388.82,249.386 388.82,243.317L388.82,208.172C388.82,206.196 388.114,204.644 386.703,203.232C385.291,201.821 383.739,201.115 381.763,201.115C379.787,201.115 378.093,201.821 376.682,203.232C375.27,204.644 374.706,206.196 374.706,208.172L374.706,243.317C374.706,253.338 378.093,261.807 385.15,268.864C392.207,275.921 400.676,279.449 410.697,279.449C420.577,279.449 429.187,275.921 436.244,268.864C443.301,261.807 446.829,253.338 446.829,243.317L446.829,208.172C446.829,206.196 446.124,204.644 444.712,203.232C443.301,201.821 441.748,201.115 439.772,201.115Z" style="fill:url(#_Linear3);fill-rule:nonzero;"/>
            <path id="path384018" d="M515.374,199.28C503.518,199.28 493.497,203.515 485.028,211.842C476.701,220.169 472.608,230.191 472.608,242.047L472.608,271.828C472.608,273.804 473.172,275.356 474.584,276.627C475.854,278.038 477.407,278.603 479.383,278.603C481.218,278.603 482.77,278.038 484.04,276.627C485.452,275.356 486.158,273.804 486.158,271.828L486.158,242.047C486.158,234.001 488.98,227.085 494.626,221.44C500.413,215.653 507.329,212.83 515.374,212.83C517.209,212.83 518.762,212.124 520.173,210.854C521.443,209.443 522.149,207.89 522.149,206.055C522.149,204.22 521.443,202.527 520.173,201.256C518.762,199.986 517.209,199.28 515.374,199.28Z" style="fill:url(#_Linear4);fill-rule:nonzero;"/>
            <path id="path384020" d="M640.332,207.749C634.404,201.821 627.206,198.857 618.737,198.857C610.269,198.857 603.07,201.821 597.142,207.749C596.437,208.455 595.872,209.16 595.166,209.866C594.602,209.16 593.896,208.455 593.331,207.749C587.262,201.821 580.064,198.857 571.595,198.857C563.127,198.857 555.929,201.821 550.001,207.749C544.073,213.818 541.109,221.016 541.109,229.485L541.109,271.828C541.109,273.804 541.673,275.356 543.085,276.768C544.496,278.179 546.19,278.885 548.166,278.885C550.001,278.885 551.694,278.179 553.106,276.768C554.517,275.356 555.223,273.804 555.223,271.828L555.223,229.485C555.223,224.968 556.775,221.016 560.022,217.77C563.268,214.524 567.079,212.971 571.595,212.971C576.253,212.971 580.064,214.524 583.31,217.77C586.557,221.016 588.109,224.968 588.109,229.485L588.109,271.828C588.109,273.804 588.815,275.356 590.226,276.768C591.638,278.179 593.19,278.885 595.166,278.885C597.142,278.885 598.836,278.179 600.106,276.768C601.518,275.356 602.223,273.804 602.223,271.828L602.223,229.485C602.223,226.521 602.929,223.698 604.482,221.157C605.893,218.617 607.869,216.641 610.41,215.229C612.95,213.677 615.773,212.971 618.737,212.971C623.254,212.971 627.206,214.524 630.311,217.77C633.557,221.016 635.251,224.968 635.251,229.485L635.251,271.828C635.251,273.804 635.815,275.356 637.227,276.768C638.638,278.179 640.332,278.885 642.308,278.885C644.143,278.885 645.837,278.179 647.248,276.768C648.659,275.356 649.365,273.804 649.365,271.828L649.365,229.485C649.365,221.016 646.26,213.818 640.332,207.749Z" style="fill:url(#_Linear5);fill-rule:nonzero;"/>
            <path id="path384022" d="M676.676,203.373C675.265,204.785 674.7,206.479 674.7,208.596L674.7,271.404C674.7,273.521 675.265,275.215 676.676,276.627C678.088,278.038 679.781,278.603 681.899,278.603C684.016,278.603 685.709,278.038 687.121,276.627C688.391,275.215 689.097,273.521 689.097,271.404L689.097,208.596C689.097,206.479 688.391,204.785 687.121,203.373C685.709,202.103 684.016,201.397 681.899,201.397C679.781,201.397 678.088,202.103 676.676,203.373ZM688.391,173.028C686.556,171.193 684.439,170.205 681.899,170.205C679.358,170.205 677.1,171.193 675.265,173.028C673.43,174.863 672.583,176.98 672.583,179.52C672.583,182.061 673.43,184.319 675.265,186.154C677.1,187.989 679.358,188.836 681.899,188.836C684.439,188.836 686.556,187.989 688.391,186.154C690.226,184.319 691.214,182.061 691.214,179.52C691.214,176.98 690.226,174.863 688.391,173.028Z" style="fill:url(#_Linear6);fill-rule:nonzero;"/>
            <path id="path384024" d="M749.186,279.167C758.502,279.167 766.688,276.344 773.886,270.416C775.439,269.287 776.144,267.735 776.427,265.9C776.568,263.924 776.144,262.371 774.874,260.819C773.745,259.407 772.192,258.56 770.358,258.419C768.523,258.278 766.829,258.701 765.418,259.972C760.619,263.783 755.255,265.617 749.186,265.617C742.129,265.617 736.06,263.218 731.12,258.137C726.039,253.197 723.639,247.128 723.639,240.071C723.639,233.013 726.039,226.944 731.12,221.863C736.06,216.923 742.129,214.383 749.186,214.383C754.973,214.383 760.195,216.217 764.853,219.746C769.37,223.275 772.334,227.791 773.886,233.296L749.186,233.296C747.351,233.296 745.658,234.001 744.387,235.272C743.117,236.542 742.411,238.236 742.411,240.071C742.411,241.905 743.117,243.599 744.387,244.869C745.658,246.14 747.351,246.845 749.186,246.845L781.649,246.845C783.484,246.845 785.036,246.14 786.307,244.869C787.718,243.599 788.424,241.905 788.424,240.071C788.424,229.203 784.472,220.028 776.85,212.407C769.228,204.785 760.054,200.833 749.186,200.833C738.318,200.833 729.144,204.785 721.522,212.407C713.9,220.028 710.09,229.203 710.09,240.071C710.09,250.939 713.9,260.113 721.522,267.735C729.144,275.356 738.318,279.167 749.186,279.167Z" style="fill:url(#_Linear7);fill-rule:nonzero;"/>
        </g>
    </g>
    <defs>
        <linearGradient id="_Linear1" x1="0" y1="0" x2="1" y2="0" gradientUnits="userSpaceOnUse" gradientTransform="matrix(585.553,-26.402,26.402,585.553,202.138,291.075)"><stop offset="0" style="stop-color:rgb(96,154,165);stop-opacity:1"/><stop offset="1" style="stop-color:rgb(122,193,210);stop-opacity:1"/></linearGradient>
        <linearGradient id="_Linear2" x1="0" y1="0" x2="1" y2="0" gradientUnits="userSpaceOnUse" gradientTransform="matrix(585.553,-26.402,26.402,585.553,202.138,291.075)"><stop offset="0" style="stop-color:rgb(96,154,165);stop-opacity:1"/><stop offset="1" style="stop-color:rgb(122,193,210);stop-opacity:1"/></linearGradient>
        <linearGradient id="_Linear3" x1="0" y1="0" x2="1" y2="0" gradientUnits="userSpaceOnUse" gradientTransform="matrix(585.553,-26.402,26.402,585.553,202.138,291.075)"><stop offset="0" style="stop-color:rgb(96,154,165);stop-opacity:1"/><stop offset="1" style="stop-color:rgb(122,193,210);stop-opacity:1"/></linearGradient>
        <linearGradient id="_Linear4" x1="0" y1="0" x2="1" y2="0" gradientUnits="userSpaceOnUse" gradientTransform="matrix(585.553,-26.402,26.402,585.553,202.138,291.075)"><stop offset="0" style="stop-color:rgb(96,154,165);stop-opacity:1"/><stop offset="1" style="stop-color:rgb(122,193,210);stop-opacity:1"/></linearGradient>
        <linearGradient id="_Linear5" x1="0" y1="0" x2="1" y2="0" gradientUnits="userSpaceOnUse" gradientTransform="matrix(585.553,-26.402,26.402,585.553,202.138,291.075)"><stop offset="0" style="stop-color:rgb(96,154,165);stop-opacity:1"/><stop offset="1" style="stop-color:rgb(122,193,210);stop-opacity:1"/></linearGradient>
        <linearGradient id="_Linear6" x1="0" y1="0" x2="1" y2="0" gradientUnits="userSpaceOnUse" gradientTransform="matrix(585.553,-26.402,26.402,585.553,202.138,291.075)"><stop offset="0" style="stop-color:rgb(96,154,165);stop-opacity:1"/><stop offset="1" style="stop-color:rgb(122,193,210);stop-opacity:1"/></linearGradient>
        <linearGradient id="_Linear7" x1="0" y1="0" x2="1" y2="0" gradientUnits="userSpaceOnUse" gradientTransform="matrix(585.553,-26.402,26.402,585.553,202.138,291.075)"><stop offset="0" style="stop-color:rgb(96,154,165);stop-opacity:1"/><stop offset="1" style="stop-color:rgb(122,193,210);stop-opacity:1"/></linearGradient>
    </defs>
</svg>
